<?xml version="1.0" encoding="utf-8"?>
<!-- Generator: Adobe Illustrator 23.0.0, SVG Export Plug-In . SVG Version: 6.00 Build 0)  -->
<svg version="1.1" id="图层_1" xmlns="http://www.w3.org/2000/svg" xmlns:xlink="http://www.w3.org/1999/xlink" x="0px" y="0px"
	 viewBox="0 0 96 96" style="enable-background:new 0 0 96 96;" xml:space="preserve">
<style type="text/css">
	.st0{fill:#CCCCCC;}
</style>
<path class="st0" d="M52,78l-1.7-9.9l2.1-2.1c0.8-0.8,0.8-2.1,0-2.9l-2.9-2.9c-0.8-0.8-2.1-0.8-2.9,0l-2.9,2.9
	c-0.8,0.8-0.8,2.1,0,2.9l2.1,2.1L44,78H22.7c-2.3,0-4.1-1.8-4.1-4.1c0-0.5,0.1-1,0.3-1.5c1-2.4,2.6-4.4,5-5.9
	c6-3.9,16.5-4.3,16.5-10.4c0-1.6-0.6-3.7-1.9-5.5c-1.2-1.8-1.9-2.5-3.7-4.9c-1.9-2.5-2.5-6.1-2.5-7.9c0-1.8,1.2-1.2,1.2-2.5
	c-0.1-6.5,0.8-11.4,6.9-14.7c1.2-0.7,4.2-1,5.6-1c1.6-0.1,0.1-1.4,3.5-1.4c3.4,0,8.2,1.5,10.4,6.2c2.3,4.7,2.5,9.7,2.5,11
	c0,1.2,1.2,0.6,1.2,2.5s-0.5,5.5-2.5,7.9c-1.9,2.5-2.5,3.1-3.8,4.9c-1.2,1.8-1.9,3.8-1.9,5.5c0,6.1,10.5,6.6,16.5,10.4
	c2.4,1.5,4.1,3.5,5,5.9c0.8,2.1-0.2,4.5-2.3,5.4c-0.5,0.2-1,0.3-1.5,0.3L52,78L52,78z"/>
</svg>
