<?xml version="1.0" encoding="utf-8"?>
<!-- Generator: Adobe Illustrator 23.0.0, SVG Export Plug-In . SVG Version: 6.00 Build 0)  -->
<svg version="1.1" id="图层_1" xmlns="http://www.w3.org/2000/svg" xmlns:xlink="http://www.w3.org/1999/xlink" x="0px" y="0px"
	 viewBox="0 0 96 96" style="enable-background:new 0 0 96 96;" xml:space="preserve">
<style type="text/css">
	.st0{fill:url(#SVGID_1_);}
	.st1{fill:url(#SVGID_2_);}
	.st2{fill:url(#SVGID_3_);}
	.st3{fill:url(#SVGID_4_);}
	.st4{fill:url(#SVGID_5_);}
	.st5{fill:url(#SVGID_6_);}
</style>
<g>
	<g>
		
			<linearGradient id="SVGID_1_" gradientUnits="userSpaceOnUse" x1="493.2063" y1="1547.6725" x2="538.3486" y2="1538.3326" gradientTransform="matrix(1 0 0 1 -442.9805 -1500.8799)">
			<stop  offset="0" style="stop-color:#F6B05E"/>
			<stop  offset="1.680000e-02" style="stop-color:#F0B25C"/>
			<stop  offset="0.2239" style="stop-color:#89B34E"/>
			<stop  offset="0.3152" style="stop-color:#3EAC4A"/>
			<stop  offset="1" style="stop-color:#33A1D2"/>
		</linearGradient>
		<path class="st0" d="M65.7,52.4c12.7-2.2,25.9-12.9,25.9-12.9c-0.5-0.4-5.7-4.7-19.9-4.8c-12.1-0.3-19.2,3.7-21.7,4.5
			c-3.1,1.1-5.5,1.3-5.5,1.3s2.2,0.7,6.4-0.9c7.4-2.7,7.3-2.7,10.4-3.3c4.4-0.9,20.9-1.8,27.5,3C88.8,39.4,82.5,46.4,65.7,52.4z"/>
		
			<linearGradient id="SVGID_2_" gradientUnits="userSpaceOnUse" x1="490.2873" y1="1538.5562" x2="526.3571" y2="1531.0935" gradientTransform="matrix(1 0 0 1 -442.9805 -1500.8799)">
			<stop  offset="0" style="stop-color:#F6B05E"/>
			<stop  offset="1.680000e-02" style="stop-color:#F0B25C"/>
			<stop  offset="0.2239" style="stop-color:#89B34E"/>
			<stop  offset="0.3152" style="stop-color:#3EAC4A"/>
			<stop  offset="1" style="stop-color:#33A1D2"/>
		</linearGradient>
		<path class="st1" d="M78.6,32c-1.5,1.4-4.6,2.2-6.5,2.3c4.6-0.1,7.2-1.2,8.2-2.9c-5-1.1-17.9-0.1-25.4,3.1
			c-6.3,2.7-6.8,3.6-10.9,3.8c3.6,0,5.9-0.9,11.9-3.3C61.9,32.6,71.6,31.6,78.6,32z"/>
		
			<linearGradient id="SVGID_3_" gradientUnits="userSpaceOnUse" x1="452.832" y1="1535.3243" x2="488.1688" y2="1528.0134" gradientTransform="matrix(1 0 0 1 -442.9805 -1500.8799)">
			<stop  offset="0" style="stop-color:#F6B05E"/>
			<stop  offset="1.680000e-02" style="stop-color:#F0B25C"/>
			<stop  offset="0.2239" style="stop-color:#89B34E"/>
			<stop  offset="0.3152" style="stop-color:#3EAC4A"/>
			<stop  offset="1" style="stop-color:#33A1D2"/>
		</linearGradient>
		<path class="st2" d="M35.7,26.6c2.5,0.2,8,1.5,7.3,12c1.3-4.1-0.6-11.4-6.3-13.3c-5.3-1.7-8.8,0.5-12.3,1.1
			c-5.3-1.7-15.8-3.5-20-1.7c2.7-0.5,10.3,0.9,13.6,2c3.4,1.1,3.5,1.3,6.7,2.2C27,28.2,33.2,26.3,35.7,26.6z"/>
		
			<linearGradient id="SVGID_4_" gradientUnits="userSpaceOnUse" x1="475.2657" y1="1554.4818" x2="506.0136" y2="1548.1201" gradientTransform="matrix(1 0 0 1 -442.9805 -1500.8799)">
			<stop  offset="0" style="stop-color:#F6B05E"/>
			<stop  offset="1.680000e-02" style="stop-color:#F0B25C"/>
			<stop  offset="0.2239" style="stop-color:#89B34E"/>
			<stop  offset="0.3152" style="stop-color:#3EAC4A"/>
			<stop  offset="1" style="stop-color:#33A1D2"/>
		</linearGradient>
		<path class="st3" d="M65.1,71.3c-2.6-2.2-3.8-4.2-13.6-4.7C35.9,65,30.2,57.8,29.8,47.7c-0.4-10.1-1.1-13.6-5.2-16.9
			c0.4,0.3,4.1,3.7,4,12.9c0.5,5.9-0.5,23.1,22.8,24C60,67.8,62.6,69.7,65.1,71.3z"/>
		
			<linearGradient id="SVGID_5_" gradientUnits="userSpaceOnUse" x1="467.5177" y1="1531.6144" x2="467.545" y2="1531.6088" gradientTransform="matrix(1 0 0 1 -442.9805 -1500.8799)">
			<stop  offset="0" style="stop-color:#F6B05E"/>
			<stop  offset="1.680000e-02" style="stop-color:#F0B25C"/>
			<stop  offset="0.2239" style="stop-color:#89B34E"/>
			<stop  offset="0.3152" style="stop-color:#3EAC4A"/>
			<stop  offset="1" style="stop-color:#33A1D2"/>
		</linearGradient>
		<path class="st4" d="M24.6,30.7C24.5,30.7,24.5,30.7,24.6,30.7C24.5,30.7,24.6,30.7,24.6,30.7z"/>
		
			<linearGradient id="SVGID_6_" gradientUnits="userSpaceOnUse" x1="494.2988" y1="1570.4015" x2="512.4474" y2="1566.6469" gradientTransform="matrix(1 0 0 1 -442.9805 -1500.8799)">
			<stop  offset="0" style="stop-color:#F6B05E"/>
			<stop  offset="1.680000e-02" style="stop-color:#F0B25C"/>
			<stop  offset="0.2239" style="stop-color:#89B34E"/>
			<stop  offset="0.3152" style="stop-color:#3EAC4A"/>
			<stop  offset="1" style="stop-color:#33A1D2"/>
		</linearGradient>
		<path class="st5" d="M64.7,63.9c-4-8.2-11.5-13.3-11.5-13.3c5.7,5,10.3,12.5,12.5,18.6c1.7,5.4,3.3,10.3,3.3,10.3
			c-4-4.7-12.5-11.5-19.8-11.6C55.5,68.9,61.7,73.5,66,78c4.3,4.6,5.8,7.2,5.5,5.4C71.1,81.6,68.7,72.1,64.7,63.9z"/>
	</g>
</g>
</svg>
