<?xml version="1.0" encoding="utf-8"?>
<!-- Generator: Adobe Illustrator 24.3.0, SVG Export Plug-In . SVG Version: 6.00 Build 0)  -->
<svg version="1.1" id="图层_1" xmlns="http://www.w3.org/2000/svg" xmlns:xlink="http://www.w3.org/1999/xlink" x="0px" y="0px"
	 viewBox="0 0 256 80" style="enable-background:new 0 0 256 80;" xml:space="preserve">
<style type="text/css">
	.st0{fill:url(#SVGID_1_);}
	.st1{fill:url(#SVGID_2_);}
	.st2{fill:url(#SVGID_3_);}
	.st3{fill:url(#SVGID_4_);}
	.st4{fill:url(#SVGID_5_);}
	.st5{fill:url(#SVGID_6_);}
	.st6{fill:#30A0D2;}
</style>
<g>
	<g>
		
			<linearGradient id="SVGID_1_" gradientUnits="userSpaceOnUse" x1="55.0923" y1="49.2458" x2="100.2322" y2="58.5851" gradientTransform="matrix(1 0 0 -1 0 82)">
			<stop  offset="0" style="stop-color:#F5AF5E"/>
			<stop  offset="2.090000e-02" style="stop-color:#E8AF5D"/>
			<stop  offset="0.2252" style="stop-color:#6EAC50"/>
			<stop  offset="0.3152" style="stop-color:#3DAB4B"/>
			<stop  offset="1" style="stop-color:#30A0D2"/>
		</linearGradient>
		<path class="st0" d="M70.6,38.4c12.7-2.2,25.9-12.9,25.9-12.9c-0.5-0.4-5.7-4.7-19.9-4.8c-12.1-0.3-19.2,3.7-21.7,4.5
			c-3.1,1-5.5,1.3-5.5,1.3s2.2,0.6,6.4-0.9c7.4-2.7,7.3-2.7,10.4-3.3c4.4-0.9,20.9-1.8,27.5,3C93.6,25.4,87.4,32.4,70.6,38.4z"/>
		
			<linearGradient id="SVGID_2_" gradientUnits="userSpaceOnUse" x1="52.1723" y1="58.3686" x2="88.2405" y2="65.8311" gradientTransform="matrix(1 0 0 -1 0 82)">
			<stop  offset="0" style="stop-color:#F5AF5E"/>
			<stop  offset="2.090000e-02" style="stop-color:#E8AF5D"/>
			<stop  offset="0.2252" style="stop-color:#6EAC50"/>
			<stop  offset="0.3152" style="stop-color:#3DAB4B"/>
			<stop  offset="1" style="stop-color:#30A0D2"/>
		</linearGradient>
		<path class="st1" d="M83.4,18c-1.5,1.4-4.6,2.2-6.5,2.3c4.6-0.1,7.2-1.2,8.2-2.9c-5.1-1.1-17.9-0.1-25.4,3.1
			c-6.3,2.7-6.8,3.6-10.9,3.8c3.6,0,5.8-0.9,11.9-3.3C66.8,18.6,76.4,17.6,83.4,18z"/>
		
			<linearGradient id="SVGID_3_" gradientUnits="userSpaceOnUse" x1="14.7166" y1="61.6063" x2="50.0515" y2="68.9169" gradientTransform="matrix(1 0 0 -1 0 82)">
			<stop  offset="0" style="stop-color:#F5AF5E"/>
			<stop  offset="2.090000e-02" style="stop-color:#E8AF5D"/>
			<stop  offset="0.2252" style="stop-color:#6EAC50"/>
			<stop  offset="0.3152" style="stop-color:#3DAB4B"/>
			<stop  offset="1" style="stop-color:#30A0D2"/>
		</linearGradient>
		<path class="st2" d="M40.6,12.5c2.5,0.2,8,1.5,7.3,12c1.3-4.1-0.6-11.4-6.3-13.3c-5.3-1.7-8.8,0.5-12.3,1.1
			c-5.3-1.7-15.8-3.5-20-1.7c2.7-0.5,10.3,0.9,13.6,2c3.4,1.1,3.5,1.3,6.8,2.2C31.9,14.2,38.1,12.3,40.6,12.5z"/>
		
			<linearGradient id="SVGID_4_" gradientUnits="userSpaceOnUse" x1="37.1517" y1="42.4347" x2="67.8995" y2="48.7963" gradientTransform="matrix(1 0 0 -1 0 82)">
			<stop  offset="0" style="stop-color:#F5AF5E"/>
			<stop  offset="2.090000e-02" style="stop-color:#E8AF5D"/>
			<stop  offset="0.2252" style="stop-color:#6EAC50"/>
			<stop  offset="0.3152" style="stop-color:#3DAB4B"/>
			<stop  offset="1" style="stop-color:#30A0D2"/>
		</linearGradient>
		<path class="st3" d="M70,57.2c-2.6-2.2-3.8-4.2-13.6-4.7C40.8,51,35.1,43.8,34.7,33.6c-0.4-10.1-1-13.6-5.2-16.9
			c0.4,0.3,4.1,3.6,4,12.9c0.5,5.9-0.5,23.1,22.8,24C64.9,53.8,67.5,55.7,70,57.2z"/>
		
			<linearGradient id="SVGID_5_" gradientUnits="userSpaceOnUse" x1="29.4005" y1="65.313" x2="29.4301" y2="65.3191" gradientTransform="matrix(1 0 0 -1 0 82)">
			<stop  offset="0" style="stop-color:#F5AF5E"/>
			<stop  offset="2.090000e-02" style="stop-color:#E8AF5D"/>
			<stop  offset="0.2252" style="stop-color:#6EAC50"/>
			<stop  offset="0.3152" style="stop-color:#3DAB4B"/>
			<stop  offset="1" style="stop-color:#30A0D2"/>
		</linearGradient>
		<path class="st4" d="M29.4,16.7C29.4,16.7,29.4,16.7,29.4,16.7C29.4,16.7,29.4,16.7,29.4,16.7z"/>
		
			<linearGradient id="SVGID_6_" gradientUnits="userSpaceOnUse" x1="56.1841" y1="26.5244" x2="74.3317" y2="30.2791" gradientTransform="matrix(1 0 0 -1 0 82)">
			<stop  offset="0" style="stop-color:#F5AF5E"/>
			<stop  offset="2.090000e-02" style="stop-color:#E8AF5D"/>
			<stop  offset="0.2252" style="stop-color:#6EAC50"/>
			<stop  offset="0.3152" style="stop-color:#3DAB4B"/>
			<stop  offset="1" style="stop-color:#30A0D2"/>
		</linearGradient>
		<path class="st5" d="M69.6,49.8C65.5,41.6,58,36.5,58,36.5c5.7,5,10.3,12.5,12.5,18.5c1.7,5.4,3.3,10.3,3.3,10.3
			c-4-4.7-12.5-11.5-19.8-11.6c6.3,1.1,12.5,5.6,16.7,10.2c4.3,4.6,5.8,7.2,5.5,5.4C75.9,67.6,73.6,58,69.6,49.8z"/>
	</g>
	<g>
		<g>
			<g>
				<path class="st6" d="M162.5,33.4l0-2.7c0-0.4,0.3-0.6,0.6-0.6c1.4,0,2.9-0.2,3.9-1.2c1.1-1.2,1.7-3.1,2.6-4.5
					c1.5-2.6,4.3-2.9,7.1-2.9c3.7,0,7.3,0.1,11,0c3-0.1,6.1-0.1,8,2.6c1,1.4,1.4,3.1,2.4,4.5c1,1.4,2.6,1.6,4.2,1.5
					c0.4,0,0.6,0.3,0.6,0.6v2.8c0,0.4-0.3,0.7-0.6,0.6c-2.8-0.1-5.7-0.6-7.4-3.1c-0.9-1.3-1.3-2.8-2.2-4c-1-1.5-2.6-1.5-4.2-1.5
					c-3.8,0-7.7,0-11.5,0c-1.3,0-2.9-0.2-3.9,0.8c-1.1,1.1-1.5,2.8-2.2,4.1c-1.7,2.9-4.6,3.6-7.7,3.7
					C162.8,34.1,162.5,33.8,162.5,33.4z"/>
				<path class="st6" d="M162.6,45.6l1.3-2.8c0.1-0.2,0.3-0.4,0.6-0.4H202c0.5,0,0.8,0.5,0.6,0.9l-1.3,2.8c-0.1,0.2-0.3,0.4-0.6,0.4
					l-29.6,0.1c-0.3,0-0.6,0.2-0.6,0.5l-1,4.3c-0.5,1.9,0.6,2.9,2.5,2.9h1.4h20.7c1.9,0,2.4-1.1,2.2-2.7c0-0.2,0.1-0.5,0.2-0.6
					l2.6-1.9c0.4-0.3,0.9,0,1,0.4l0.4,2.8c0.2,1.4-0.1,3.1-1,4.2c-1.1,1.3-2.8,2-5,2l-20.5,0c-2.4,0-4-0.1-4.8-0.3
					c-1.4-0.4-2.5-1-3.1-1.9c-1-1.4-1.1-2.9-0.7-4.5l1-4.4c0.1-0.4-0.2-0.8-0.6-0.8h-2.5C162.7,46.5,162.4,46.1,162.6,45.6z"/>
				<path class="st6" d="M164.2,37.9l1.3-2.8c0.1-0.2,0.3-0.4,0.6-0.4h34.4c0.5,0,0.8,0.5,0.6,0.9l-1.3,2.8
					c-0.1,0.2-0.3,0.4-0.6,0.4h-34.4C164.3,38.8,164,38.3,164.2,37.9z"/>
			</g>
			<g>
				<path class="st6" d="M207.2,36.4l1.3-2.7c0.1-0.2,0.3-0.4,0.6-0.4h37.8c0.5,0,0.8,0.5,0.6,0.9l-1.3,2.7
					c-0.1,0.2-0.3,0.4-0.6,0.4h-27c-0.3,0-0.5,0.2-0.6,0.5l-3.4,13.1c-0.3,1.1-0.3,2.4,0.8,3.1c0.4,0.2,0.8,0.3,1.1,0.3h1.3h20
					c1.2,0,1.9,0,2.1-0.2c1.2-0.5,1.3-1.7,1-2.8l-1.5-6.3c-0.1-0.2,0-0.5,0.2-0.7l2.4-1.7c0.4-0.3,0.9-0.1,1,0.4l1.8,7.7
					c0.6,2.6,0.7,5.1-1.8,6.8c-1,0.7-2.5,1-4.6,1h-22.4c-1.7,0-3.1-0.4-4.2-1.2c-2.1-1.5-2.3-3.9-1.7-6.2l3.3-12.9
					c0.1-0.4-0.2-0.8-0.6-0.8h-5.3C207.3,37.3,207,36.8,207.2,36.4z M209.3,26.6l1.3-2.7c0.1-0.2,0.3-0.4,0.6-0.4H245
					c0.5,0,0.8,0.5,0.6,0.9l-1.3,2.7c-0.1,0.2-0.3,0.4-0.6,0.4h-33.8C209.4,27.5,209.1,27,209.3,26.6z"/>
			</g>
			<g>
				<path class="st6" d="M148.3,39.9c-0.7-0.7-1.8-1.1-3.2-1.1h-15.5c-1.1,0-2,0.4-2.7,1.1c-0.7,0.7-1,1.7-1,3v9.5
					c0,1.4,0.6,2.5,1.8,3.3c0.5,0.3,1.5,0.5,3.1,0.5h14.8c1.1,0,2-0.3,2.7-1c0.7-0.7,1.1-1.8,1.1-3.3v-9.5
					C149.4,41.4,149,40.6,148.3,39.9z M145.3,50.7c0,0.5-0.1,0.8-0.3,1.1c-0.2,0.2-0.6,0.3-1.4,0.3h-11.9c-0.8,0-1.2-0.1-1.4-0.2
					c-0.3-0.2-0.4-0.5-0.4-1v-1.4h15.4L145.3,50.7L145.3,50.7z M145.3,45.4h-15.4V44c0-0.4,0.1-0.7,0.3-0.9c0.2-0.2,0.7-0.3,1.4-0.3
					h12.3c1,0,1.5,0.5,1.5,1.4L145.3,45.4L145.3,45.4z"/>
				<path class="st6" d="M118.1,35.8l1.3-2.8c0.1-0.2,0.3-0.4,0.6-0.4h5.1c0.5,0,0.8,0.5,0.6,0.9l-1.3,2.8c-0.1,0.2-0.3,0.4-0.6,0.4
					h-5.1C118.2,36.7,117.9,36.2,118.1,35.8z"/>
				<path class="st6" d="M155.1,33.3c-0.8-0.5-2-0.8-3.7-0.8H135h-3.5H130c-0.2,0-0.5,0.1-0.6,0.4l-1.3,2.8
					c-0.2,0.4,0.1,0.9,0.6,0.9h2.4l0,0h19.3c0.8,0,1.4,0.1,1.8,0.2c0.2,0.1,0.5,0.2,0.7,0.5c0.5,0.5,0.7,1.2,0.7,2.2v12
					c0,0.7-0.1,1.2-0.2,1.5c-0.2,0.5-0.6,0.8-1.1,1.2c-0.2,0.2-0.9,0.2-1.9,0.2h-1.4v4h2c1.4,0,2.3-0.1,2.8-0.3
					c1.1-0.4,2.1-1.1,2.8-2.1c0.6-0.9,1-2.3,1-4.3V37.9C157.8,36,156.9,34.5,155.1,33.3z"/>
				<path class="st6" d="M157.6,23.6L157.6,23.6L157.6,23.6c-0.4,0-11.8,0-12.1,0s-0.6-0.3-0.5-0.6c0-0.3,0.1-0.7,0.1-1
					c0-0.3,0.2-0.6-0.5-0.6c-0.6,0-2.5,0-3.1,0c-0.6,0-0.6,0.6-0.6,0.6l-0.5,3.3c-0.2,1.3-0.7,2.1-1.6,2.4c-0.6,0.1-0.6,0.3-0.6,0.6
					s0,2.6,0,2.9s0,0.6,0.6,0.5c1.3-0.2,2.3-0.6,3.1-1.2c0.7-0.5,1.4-1.4,1.9-2.5c0.1-0.2,0.3-0.6,0.6-0.6s3,0,3.4,0
					s0.6,0.2,0.6,0.6s0,2.4,0,2.7s0.3,0.6,0.6,0.6s2.4,0,2.8,0s0.6-0.3,0.6-0.6s0-2.3,0-2.7s0.2-0.6,0.6-0.6h3.3
					c0.2,0,0.4-0.1,0.5-0.4l1.2-2.7C158.3,24.1,158,23.6,157.6,23.6z"/>
				<path class="st6" d="M137,23.6L137,23.6L137,23.6c-0.4,0-11.8,0-12.1,0s-0.6-0.3-0.5-0.6c0-0.3,0.1-0.7,0.1-1
					c0-0.3,0.2-0.6-0.5-0.6c-0.6,0-2.5,0-3.1,0c-0.6,0-0.6,0.6-0.6,0.6l-0.5,3.3c-0.2,1.3-0.7,2.1-1.6,2.4c-0.6,0.1-0.6,0.3-0.6,0.6
					s0,2.6,0,2.9s0,0.6,0.6,0.5c1.3-0.2,2.3-0.6,3.1-1.2c0.7-0.5,1.4-1.4,1.9-2.5c0.1-0.2,0.3-0.6,0.6-0.6c0.3,0,3,0,3.3,0
					s0.6,0.2,0.6,0.6s0,2.4,0,2.7s0.3,0.6,0.6,0.6s2.4,0,2.8,0s0.6-0.3,0.6-0.6s0-2.3,0-2.7s0.2-0.6,0.6-0.6h3.3
					c0.2,0,0.4-0.1,0.5-0.4l1.2-2.7C137.8,24.1,137.5,23.6,137,23.6z"/>
				<path class="st6" d="M118.9,58.4l2.8-1.3c0.2-0.1,0.4-0.3,0.4-0.6V39.4c0-0.5-0.5-0.8-0.9-0.6l-2.8,1.3
					c-0.2,0.1-0.4,0.3-0.4,0.6v17.2C118,58.3,118.5,58.6,118.9,58.4z"/>
			</g>
		</g>
	</g>
</g>
</svg>
